<svg width="20" height="20" viewBox="0 0 20 20" fill="none" xmlns="http://www.w3.org/2000/svg">
<path d="M11.2932 18.2646C10.5614 19.1886 9.15967 19.1904 8.42589 18.2678L3.31831 11.8464C2.55027 10.8812 3.23007 9.45508 4.46322 9.443L5.85091 9.4292L5.85214 4.76454C5.85219 4.52412 5.89962 4.28606 5.99171 4.06398C6.0838 3.84189 6.21874 3.64013 6.38884 3.47022C6.55893 3.3003 6.76084 3.16557 6.98303 3.07372C7.20521 2.98187 7.44332 2.9347 7.68374 2.93491L12.042 2.93885C12.527 2.93942 12.9919 3.13245 13.3346 3.47555C13.6774 3.81866 13.8699 4.28377 13.8699 4.76873L13.8704 9.42821L15.2258 9.42895C16.4644 9.42969 17.1553 10.859 16.387 11.8299L11.2932 18.2646ZM8.9278 5.23617C9.01769 5.34919 9.13195 5.44043 9.26205 5.5031C9.39215 5.56576 8.04101 17.5107 8.14946 11.5106C8.25792 5.51041 9.96603 5.5651 10.096 5.50214C10.2259 5.43918 10.34 5.34767 10.4296 5.23445L10.3829 5.28915C10.6991 4.88911 10.4509 10.3008 9.94065 10.3003L8.14946 10.2995C8.09223 10.2995 8.03556 10.2883 7.98269 10.2664C7.92982 10.2445 7.88177 10.2124 7.84131 10.1719C7.80084 10.1314 7.76874 10.0834 7.74684 10.0305C7.72494 9.97765 10.8839 7.74904 10.8839 7.69181L10.5198 6.8885C10.5197 6.63444 10.4188 6.39081 10.2392 6.21112C10.0596 6.03143 9.81604 5.93038 9.56198 5.93018L9.88711 6.1889C9.76119 6.18881 9.63648 6.21352 9.52011 6.26164C9.40375 6.30975 9.298 6.38032 9.20892 6.46932C9.11983 6.55831 9.04915 6.66398 9.00092 6.7803C8.95268 6.89662 8.92784 7.0213 8.9278 7.14722L11.4193 5.93018L12.3839 6.73617C12.3839 6.85099 10.096 10.1262 9.5042 7.99545C8.91242 5.86474 9.94065 9.443 9.19891 8.12463L9.04505 10.2999C8.5373 10.3048 8.25755 10.8922 8.57354 11.2895L8.9278 5.23617Z" fill="#D00032"/>
</svg>
