<svg width="20" height="20" viewBox="0 0 20 20" fill="none" xmlns="http://www.w3.org/2000/svg">
<path d="M8.42407 1.45265C9.15588 0.528594 10.5576 0.526868 11.2914 1.44945L16.399 7.87078C17.167 8.836 16.4872 10.2621 15.2541 10.2742L13.8664 10.288L13.8651 14.9527C13.8651 15.1931 13.8177 15.4312 13.7256 15.6532C13.6335 15.8753 13.4985 16.0771 13.3284 16.247C13.1584 16.4169 12.9564 16.5516 12.7343 16.6435C12.5121 16.7353 12.274 16.7825 12.0335 16.7823L7.67526 16.7784C7.1903 16.7778 6.72539 16.5848 6.38266 16.2417C6.03993 15.8986 5.8474 15.4335 5.84735 14.9485L5.84686 10.289L4.49146 10.2883C3.25289 10.2875 2.56201 8.85818 3.33029 7.88729L8.42407 1.45265V1.45265ZM10.6091 1.99171C10.5192 1.87869 10.405 1.78745 10.2749 1.72478C10.1448 1.66212 10.0022 1.62966 9.85781 1.62983C9.7134 1.62999 9.57091 1.66278 9.44095 1.72574C9.311 1.7887 9.19695 1.88021 9.10732 1.99343L4.01353 8.42807C3.6973 8.82811 3.98149 9.41647 4.49171 9.41696L6.28289 9.4177C6.34012 9.41769 6.39679 9.42896 6.44966 9.45085C6.50254 9.47275 6.55058 9.50485 6.59105 9.54532C6.63151 9.58578 6.66361 9.63383 6.68551 9.6867C6.70741 9.73958 6.71867 9.79625 6.71867 9.85348L6.71842 14.9485C6.71849 15.2025 6.81941 15.4462 6.99901 15.6259C7.17861 15.8056 7.42219 15.9066 7.67625 15.9068L12.0345 15.9108C12.1605 15.9108 12.2852 15.8861 12.4015 15.838C12.5179 15.7899 12.6236 15.7193 12.7127 15.6303C12.8018 15.5413 12.8725 15.4357 12.9207 15.3194C12.969 15.203 12.9938 15.0784 12.9938 14.9524L12.9951 9.85643C12.995 9.74162 13.0403 9.63143 13.1211 9.54983C13.2019 9.46823 13.3116 9.42181 13.4264 9.42065L15.2454 9.40291C15.7532 9.39798 16.033 8.81061 15.717 8.41329L10.6091 1.99171V1.99171Z" fill="#6F6F6F"/>
</svg>
