<svg width="20" height="20" viewBox="0 0 20 20" fill="none" xmlns="http://www.w3.org/2000/svg">
<path d="M8.42407 1.45265C9.15587 0.528594 10.5576 0.526868 11.2914 1.44945L16.399 7.87078C17.167 8.836 16.4872 10.2621 15.2541 10.2742L13.8664 10.288L13.8651 14.9527C13.8651 15.1931 13.8177 15.4312 13.7256 15.6532C13.6335 15.8753 13.4985 16.0771 13.3284 16.247C13.1584 16.4169 12.9564 16.5516 12.7343 16.6435C12.5121 16.7353 12.274 16.7825 12.0335 16.7823L7.67526 16.7784C7.1903 16.7778 6.72539 16.5848 6.38266 16.2417C6.03993 15.8986 5.8474 15.4335 5.84736 14.9485L5.84686 10.289L4.49146 10.2883C3.25289 10.2875 2.56201 8.85818 3.33029 7.88729L8.42407 1.45265ZM10.7895 14.481C10.6996 14.368 10.5853 14.2768 10.4552 14.2141C10.3251 14.1515 11.6763 2.20648 11.5678 8.20665C11.4594 14.2068 9.75126 14.1521 9.6213 14.2151C9.49135 14.278 9.3773 14.3696 9.28767 14.4828L9.33442 14.4281C9.01818 14.8281 9.26642 9.41647 9.77664 9.41696L11.5678 9.4177C11.6251 9.41769 11.6817 9.42896 11.7346 9.45085C11.7875 9.47275 11.8355 9.50485 11.876 9.54532C11.9164 9.58578 11.9485 9.63383 11.9704 9.6867C11.9923 9.73958 8.83337 11.9682 8.83337 12.0254L9.19748 12.8287C9.19755 13.0828 9.29847 13.3264 9.47806 13.5061C9.65766 13.6858 9.90125 13.7868 10.1553 13.787L9.83018 13.5283C9.9561 13.5284 10.0808 13.5037 10.1972 13.4556C10.3135 13.4075 10.4193 13.3369 10.5084 13.2479C10.5975 13.1589 10.6681 13.0532 10.7164 12.9369C10.7646 12.8206 10.7894 12.6959 10.7895 12.57L8.29802 13.787L7.33337 12.981C7.33335 12.8662 9.6213 9.59106 10.2131 11.7218C10.8049 13.8525 9.77664 10.2742 10.5184 11.5926L10.6722 9.41733C11.18 9.4124 11.4597 8.82503 11.1437 8.42771L10.7895 14.481Z" fill="#00AF27"/>
</svg>
